<svg width="11" height="12" viewBox="0 0 11 12" fill="none" xmlns="http://www.w3.org/2000/svg">
<path d="M5.2446 11.5456L0.981441 7.28245C0.937454 7.23846 0.902562 7.18624 0.878757 7.12877C0.854951 7.0713 0.842697 7.0097 0.842697 6.9475C0.842697 6.88529 0.854951 6.82369 0.878757 6.76622C0.902562 6.70875 0.937454 6.65653 0.981441 6.61254C1.02543 6.56856 1.07765 6.53366 1.13512 6.50986C1.19259 6.48605 1.25419 6.4738 1.31639 6.4738C1.3786 6.4738 1.4402 6.48605 1.49767 6.50986C1.55514 6.53366 1.60736 6.56856 1.65135 6.61254L5.10587 10.0671L5.10587 0.789602C5.10587 0.663973 5.15577 0.54349 5.24461 0.454657C5.33344 0.365824 5.45392 0.315918 5.57955 0.315918C5.70518 0.315918 5.82566 0.365824 5.9145 0.454657C6.00333 0.54349 6.05324 0.663973 6.05324 0.789602L6.05324 10.0671L9.50776 6.61254C9.59659 6.52371 9.71708 6.4738 9.84271 6.4738C9.96834 6.4738 10.0888 6.52371 10.1777 6.61254C10.2665 6.70138 10.3164 6.82186 10.3164 6.9475C10.3164 7.07313 10.2665 7.19362 10.1777 7.28245L5.91451 11.5456C5.87052 11.5896 5.8183 11.6245 5.76083 11.6483C5.70336 11.6721 5.64176 11.6844 5.57955 11.6844C5.51734 11.6844 5.45575 11.6721 5.39828 11.6483C5.3408 11.6245 5.28858 11.5896 5.2446 11.5456V11.5456Z" fill="white"/>
</svg>
