<svg width="16" height="14" viewBox="0 0 16 14" fill="none" xmlns="http://www.w3.org/2000/svg">
<path d="M15.8047 7.49499L9.80474 13.795C9.74283 13.86 9.66933 13.9115 9.58845 13.9467C9.50756 13.9819 9.42087 14 9.33332 14C9.24577 14 9.15908 13.9819 9.07819 13.9467C8.9973 13.9115 8.92381 13.86 8.8619 13.795C8.8 13.73 8.75089 13.6528 8.71739 13.5679C8.68388 13.4829 8.66664 13.3919 8.66664 13.3C8.66664 13.2081 8.68388 13.117 8.71739 13.0321C8.75089 12.9472 8.8 12.87 8.8619 12.805L13.7238 7.7L0.666666 7.7C0.489855 7.7 0.320286 7.62625 0.195262 7.49497C0.0702379 7.3637 0 7.18565 0 7C0 6.81435 0.0702379 6.6363 0.195262 6.50503C0.320286 6.37375 0.489855 6.3 0.666666 6.3L13.7238 6.3L8.8619 1.195C8.73688 1.06372 8.66664 0.885672 8.66664 0.700016C8.66664 0.51436 8.73688 0.336308 8.8619 0.20503C8.98693 0.0737513 9.1565 0 9.33332 0C9.51013 0 9.67971 0.0737513 9.80474 0.20503L15.8047 6.50501C15.8666 6.57001 15.9157 6.64718 15.9492 6.73211C15.9828 6.81704 16 6.90807 16 7C16 7.09193 15.9828 7.18296 15.9492 7.26789C15.9157 7.35282 15.8666 7.42998 15.8047 7.49499Z" fill="#202B56"/>
</svg>
