<svg width="16" height="18" viewBox="0 0 16 18" fill="none" xmlns="http://www.w3.org/2000/svg">
<path d="M7.46964 17.7803L0.719637 11.0303C0.649992 10.9607 0.594746 10.878 0.557054 10.787C0.519362 10.696 0.499959 10.5985 0.499959 10.5C0.499959 10.4015 0.519362 10.304 0.557054 10.213C0.594746 10.122 0.649992 10.0393 0.719637 9.96966C0.789283 9.90001 0.871962 9.84476 0.962959 9.80707C1.05396 9.76938 1.15149 9.74998 1.24998 9.74998C1.34847 9.74998 1.446 9.76938 1.537 9.80707C1.628 9.84476 1.71068 9.90001 1.78032 9.96966L7.24998 15.4393L7.24998 0.75C7.24998 0.551087 7.329 0.360322 7.46965 0.21967C7.6103 0.0790174 7.80107 -3.36531e-07 7.99998 -3.27836e-07C8.19889 -3.19142e-07 8.38966 0.0790175 8.53031 0.21967C8.67096 0.360322 8.74998 0.551087 8.74998 0.75L8.74998 15.4393L14.2196 9.96966C14.3603 9.829 14.5511 9.74998 14.75 9.74998C14.9489 9.74998 15.1397 9.829 15.2803 9.96966C15.421 10.1103 15.5 10.3011 15.5 10.5C15.5 10.6989 15.421 10.8897 15.2803 11.0303L8.53032 17.7803C8.46068 17.85 8.378 17.9052 8.287 17.9429C8.196 17.9806 8.09847 18 7.99998 18C7.90149 18 7.80395 17.9806 7.71296 17.9429C7.62196 17.9052 7.53928 17.85 7.46964 17.7803Z" fill="#202B56"/>
</svg>
